# xmcd
#
# Track frame offsets: 
#        150
#        18031
#        27839
#        39749
#        45806
#        58928
#        69982
#        75033
#        83278
#        93590
#        106096
#        119121
#        127936
#
# Disc length: 1828 seconds
#
# Revision: 0
# Processed by: cddbd v1.5.2PL0 Copyright (c) Steve Scherf et al.
# Submitted via: ExactAudioCopy v0.95b2
#
DISCID=8c07220d
DTITLE=Oerjgrinder and Calvaria Fuck Fever - Most Fucked Up Split Ever
DYEAR=2010
DGENRE=Acid Punk
TTITLE0=01.GTA
TTITLE1=02.Terror Squad (feat. Reborn to Conquer)
TTITLE2=03.No Titled
TTITLE3=04.La Chairepourire
TTITLE4=05.Ganja Break (feat. Jazzafari)
TTITLE5=06.Not Technical Just Brutal (feat. Faab and Jason)
TTITLE6=07.Blastypop
TTITLE7=08.Fuck Beatz
TTITLE8=09.Fuck Your Trend
TTITLE9=10.Cocaine and Sex
TTITLE10=11.Fuck Fever
TTITLE11=12.Take Her Life
TTITLE12=13.Zombie Rising
EXTD=
EXTT0=
EXTT1=
EXTT2=
EXTT3=
EXTT4=
EXTT5=
EXTT6=
EXTT7=
EXTT8=
EXTT9=
EXTT10=
EXTT11=
EXTT12=
PLAYORDER=
